<svg width="14" height="14" viewBox="0 0 14 14" fill="none" xmlns="http://www.w3.org/2000/svg">
<path fill-rule="evenodd" clip-rule="evenodd" d="M6.018 0.5H7.982C8.795 0.5 9.451 0.5 9.982 0.543C10.528 0.588 11.008 0.683 11.452 0.909C12.1581 1.26837 12.7322 1.84214 13.092 2.548C13.318 2.992 13.412 3.472 13.457 4.018C13.5 4.549 13.5 5.205 13.5 6.018V7.982C13.5 8.795 13.5 9.451 13.457 9.982C13.412 10.528 13.317 11.008 13.091 11.452C12.7316 12.1581 12.1579 12.7322 11.452 13.092C11.008 13.318 10.528 13.412 9.982 13.457C9.451 13.5 8.795 13.5 7.982 13.5H6.018C5.205 13.5 4.549 13.5 4.018 13.457C3.472 13.412 2.992 13.317 2.548 13.091C1.84192 12.7316 1.2678 12.1579 0.908 11.452C0.682 11.008 0.588 10.528 0.543 9.982C0.5 9.451 0.5 8.795 0.5 7.982V6.018C0.5 5.205 0.5 4.549 0.543 4.018C0.588 3.472 0.683 2.992 0.909 2.548C1.26837 1.84192 1.84214 1.2678 2.548 0.908C2.992 0.682 3.472 0.588 4.018 0.543C4.549 0.5 5.205 0.5 6.018 0.5ZM4.141 2.038C3.687 2.075 3.426 2.145 3.229 2.245C2.80526 2.46078 2.46078 2.80526 2.245 3.229C2.145 3.426 2.075 3.687 2.038 4.141C2.001 4.603 2 5.198 2 6.05V7.478L2.723 6.611C2.87868 6.42417 3.0716 6.27184 3.28944 6.16373C3.50727 6.05561 3.74526 5.99409 3.9882 5.98308C4.23114 5.97207 4.47371 6.01182 4.70043 6.09979C4.92716 6.18776 5.13306 6.32202 5.305 6.494L8 9.189L9.18 8.009C9.35409 7.83501 9.56292 7.69969 9.79285 7.61189C10.0228 7.52409 10.2687 7.48578 10.5144 7.49947C10.7602 7.51315 11.0003 7.57852 11.219 7.6913C11.4378 7.80409 11.6303 7.96175 11.784 8.154L12 8.424V6.05C12 5.198 12 4.603 11.962 4.14C11.925 3.687 11.855 3.426 11.755 3.229C11.5392 2.80526 11.1947 2.46078 10.771 2.245C10.574 2.145 10.313 2.075 9.859 2.038C9.397 2.001 8.803 2 7.95 2H6.05C5.198 2 4.604 2 4.141 2.038ZM2.038 9.859C2.03585 9.83235 2.03385 9.80568 2.032 9.779C2.04738 9.76332 2.06206 9.74697 2.076 9.73L3.876 7.571C3.89829 7.54449 3.92584 7.52291 3.95691 7.50761C3.98798 7.49231 4.02189 7.48364 4.05648 7.48213C4.09108 7.48063 4.12562 7.48633 4.1579 7.49887C4.19017 7.51142 4.2195 7.53053 4.244 7.555L7.47 10.78C7.61063 10.9205 7.80125 10.9993 8 10.9993C8.19875 10.9993 8.38937 10.9205 8.53 10.78L10.24 9.07C10.2649 9.04516 10.2947 9.02585 10.3276 9.01333C10.3605 9.00081 10.3956 8.99537 10.4307 8.99735C10.4658 8.99933 10.5001 9.00869 10.5313 9.02483C10.5626 9.04097 10.5901 9.06352 10.612 9.091L11.825 10.607C11.804 10.667 11.78 10.721 11.755 10.772C11.539 11.195 11.195 11.539 10.771 11.755C10.574 11.855 10.313 11.925 9.859 11.962C9.397 11.999 8.803 12 7.95 12H6.05C5.198 12 4.603 12 4.14 11.962C3.687 11.925 3.426 11.855 3.229 11.755C2.80526 11.5392 2.46078 11.1947 2.245 10.771C2.145 10.574 2.075 10.313 2.038 9.859Z" fill="black"/>
</svg>
